<mxfile>
    <diagram id="-iqM8rC-7A34NJt66M_C" name="Page-1">
        <mxGraphModel dx="1767" dy="778" grid="1" gridSize="10" guides="1" tooltips="1" connect="1" arrows="1" fold="1" page="1" pageScale="1" pageWidth="827" pageHeight="1169" math="0" shadow="0">
            <root>
                <mxCell id="0"/>
                <mxCell id="1" parent="0"/>
                <mxCell id="JEFxncGDEQIBqT9fs3Xw-1" value="1 andar / 00&amp;nbsp;" style="ellipse;whiteSpace=wrap;html=1;aspect=fixed;" parent="1" vertex="1">
                    <mxGeometry x="40" y="280" width="80" height="80" as="geometry"/>
                </mxCell>
                <mxCell id="JEFxncGDEQIBqT9fs3Xw-2" value="2 andar / 00" style="ellipse;whiteSpace=wrap;html=1;aspect=fixed;" parent="1" vertex="1">
                    <mxGeometry x="334" y="40" width="80" height="80" as="geometry"/>
                </mxCell>
                <mxCell id="JEFxncGDEQIBqT9fs3Xw-3" value="3 andar / 00" style="ellipse;whiteSpace=wrap;html=1;aspect=fixed;" parent="1" vertex="1">
                    <mxGeometry x="690" y="110" width="80" height="80" as="geometry"/>
                </mxCell>
                <mxCell id="JEFxncGDEQIBqT9fs3Xw-4" value="subindo / 01" style="ellipse;whiteSpace=wrap;html=1;aspect=fixed;" parent="1" vertex="1">
                    <mxGeometry x="660" y="620" width="110" height="110" as="geometry"/>
                </mxCell>
                <mxCell id="JEFxncGDEQIBqT9fs3Xw-5" value="descendo / 10" style="ellipse;whiteSpace=wrap;html=1;aspect=fixed;" parent="1" vertex="1">
                    <mxGeometry x="60" y="640" width="100" height="100" as="geometry"/>
                </mxCell>
                <mxCell id="JEFxncGDEQIBqT9fs3Xw-6" value="emergencia / 00" style="ellipse;whiteSpace=wrap;html=1;aspect=fixed;" parent="1" vertex="1">
                    <mxGeometry x="360" y="360" width="80" height="80" as="geometry"/>
                </mxCell>
                <mxCell id="JEFxncGDEQIBqT9fs3Xw-16" value="" style="endArrow=classic;html=1;entryX=0;entryY=0.5;entryDx=0;entryDy=0;fillColor=#f8cecc;strokeColor=#b85450;strokeWidth=2;exitX=1;exitY=0.5;exitDx=0;exitDy=0;" parent="1" target="JEFxncGDEQIBqT9fs3Xw-6" edge="1" source="JEFxncGDEQIBqT9fs3Xw-1">
                    <mxGeometry width="50" height="50" relative="1" as="geometry">
                        <mxPoint x="140" y="330" as="sourcePoint"/>
                        <mxPoint x="230" y="300" as="targetPoint"/>
                        <Array as="points">
                            <mxPoint x="240" y="320"/>
                        </Array>
                    </mxGeometry>
                </mxCell>
                <mxCell id="JEFxncGDEQIBqT9fs3Xw-17" value="" style="endArrow=classic;html=1;fillColor=#f8cecc;strokeColor=#b85450;strokeWidth=2;exitX=0.5;exitY=1;exitDx=0;exitDy=0;" parent="1" edge="1" source="JEFxncGDEQIBqT9fs3Xw-2">
                    <mxGeometry width="50" height="50" relative="1" as="geometry">
                        <mxPoint x="340" y="250" as="sourcePoint"/>
                        <mxPoint x="400" y="360" as="targetPoint"/>
                    </mxGeometry>
                </mxCell>
                <mxCell id="JEFxncGDEQIBqT9fs3Xw-18" value="" style="endArrow=classic;html=1;fillColor=#f8cecc;strokeColor=#b85450;strokeWidth=2;exitX=-0.019;exitY=0.631;exitDx=0;exitDy=0;exitPerimeter=0;" parent="1" source="JEFxncGDEQIBqT9fs3Xw-3" target="JEFxncGDEQIBqT9fs3Xw-6" edge="1">
                    <mxGeometry width="50" height="50" relative="1" as="geometry">
                        <mxPoint x="520" y="281.84000000000003" as="sourcePoint"/>
                        <mxPoint x="552.6399999999999" y="398.1599999999999" as="targetPoint"/>
                        <Array as="points">
                            <mxPoint x="540" y="220"/>
                        </Array>
                    </mxGeometry>
                </mxCell>
                <mxCell id="JEFxncGDEQIBqT9fs3Xw-19" value="" style="endArrow=classic;html=1;entryX=1;entryY=1;entryDx=0;entryDy=0;fillColor=#f8cecc;strokeColor=#b85450;strokeWidth=2;exitX=0;exitY=0.5;exitDx=0;exitDy=0;" parent="1" source="JEFxncGDEQIBqT9fs3Xw-4" target="JEFxncGDEQIBqT9fs3Xw-6" edge="1">
                    <mxGeometry width="50" height="50" relative="1" as="geometry">
                        <mxPoint x="360" y="270" as="sourcePoint"/>
                        <mxPoint x="392.6399999999999" y="386.31999999999994" as="targetPoint"/>
                    </mxGeometry>
                </mxCell>
                <mxCell id="JEFxncGDEQIBqT9fs3Xw-20" value="" style="endArrow=classic;html=1;fillColor=#f8cecc;strokeColor=#b85450;strokeWidth=2;exitX=1;exitY=0.5;exitDx=0;exitDy=0;entryX=0;entryY=1;entryDx=0;entryDy=0;" parent="1" edge="1" target="JEFxncGDEQIBqT9fs3Xw-6" source="JEFxncGDEQIBqT9fs3Xw-5">
                    <mxGeometry width="50" height="50" relative="1" as="geometry">
                        <mxPoint x="330" y="610" as="sourcePoint"/>
                        <mxPoint x="380" y="440" as="targetPoint"/>
                        <Array as="points">
                            <mxPoint x="280" y="600"/>
                            <mxPoint x="340" y="520"/>
                        </Array>
                    </mxGeometry>
                </mxCell>
                <mxCell id="JEFxncGDEQIBqT9fs3Xw-25" value="" style="curved=1;endArrow=classic;html=1;strokeWidth=2;exitX=0.5;exitY=0;exitDx=0;exitDy=0;entryX=0;entryY=0.5;entryDx=0;entryDy=0;" parent="1" source="JEFxncGDEQIBqT9fs3Xw-5" target="JEFxncGDEQIBqT9fs3Xw-2" edge="1">
                    <mxGeometry width="50" height="50" relative="1" as="geometry">
                        <mxPoint x="160" y="300" as="sourcePoint"/>
                        <mxPoint x="210" y="250" as="targetPoint"/>
                        <Array as="points">
                            <mxPoint x="150" y="460"/>
                            <mxPoint x="220" y="230"/>
                        </Array>
                    </mxGeometry>
                </mxCell>
                <mxCell id="JEFxncGDEQIBqT9fs3Xw-26" value="" style="curved=1;endArrow=classic;html=1;strokeColor=#000000;strokeWidth=2;entryX=1;entryY=0;entryDx=0;entryDy=0;exitX=0;exitY=1;exitDx=0;exitDy=0;" parent="1" edge="1" target="JEFxncGDEQIBqT9fs3Xw-5" source="JEFxncGDEQIBqT9fs3Xw-2">
                    <mxGeometry width="50" height="50" relative="1" as="geometry">
                        <mxPoint x="330" y="240" as="sourcePoint"/>
                        <mxPoint x="310" y="590" as="targetPoint"/>
                        <Array as="points">
                            <mxPoint x="330" y="420"/>
                        </Array>
                    </mxGeometry>
                </mxCell>
                <mxCell id="JEFxncGDEQIBqT9fs3Xw-27" value="" style="curved=1;endArrow=classic;html=1;strokeColor=#000000;strokeWidth=2;entryX=0.018;entryY=0.691;entryDx=0;entryDy=0;entryPerimeter=0;exitX=1;exitY=1;exitDx=0;exitDy=0;" parent="1" target="JEFxncGDEQIBqT9fs3Xw-4" edge="1" source="JEFxncGDEQIBqT9fs3Xw-1">
                    <mxGeometry width="50" height="50" relative="1" as="geometry">
                        <mxPoint x="140" y="360" as="sourcePoint"/>
                        <mxPoint x="630" y="650" as="targetPoint"/>
                        <Array as="points">
                            <mxPoint x="220" y="580"/>
                        </Array>
                    </mxGeometry>
                </mxCell>
                <mxCell id="JEFxncGDEQIBqT9fs3Xw-28" value="" style="curved=1;endArrow=classic;html=1;strokeWidth=2;exitX=0;exitY=0;exitDx=0;exitDy=0;" parent="1" source="JEFxncGDEQIBqT9fs3Xw-5" target="JEFxncGDEQIBqT9fs3Xw-1" edge="1">
                    <mxGeometry width="50" height="50" relative="1" as="geometry">
                        <mxPoint x="305" y="630" as="sourcePoint"/>
                        <mxPoint x="330.27474040816435" y="238.79973357992685" as="targetPoint"/>
                        <Array as="points">
                            <mxPoint x="40" y="580"/>
                            <mxPoint x="40" y="460"/>
                        </Array>
                    </mxGeometry>
                </mxCell>
                <mxCell id="JEFxncGDEQIBqT9fs3Xw-29" value="" style="curved=1;endArrow=classic;html=1;strokeWidth=2;exitX=1;exitY=0;exitDx=0;exitDy=0;entryX=1;entryY=0.5;entryDx=0;entryDy=0;" parent="1" edge="1" target="JEFxncGDEQIBqT9fs3Xw-3" source="JEFxncGDEQIBqT9fs3Xw-4">
                    <mxGeometry width="50" height="50" relative="1" as="geometry">
                        <mxPoint x="700" y="580" as="sourcePoint"/>
                        <mxPoint x="665" y="310" as="targetPoint"/>
                        <Array as="points">
                            <mxPoint x="820" y="440"/>
                        </Array>
                    </mxGeometry>
                </mxCell>
                <mxCell id="JEFxncGDEQIBqT9fs3Xw-30" value="" style="curved=1;endArrow=classic;html=1;strokeColor=#000000;strokeWidth=2;entryX=1;entryY=1;entryDx=0;entryDy=0;" parent="1" source="JEFxncGDEQIBqT9fs3Xw-3" edge="1" target="JEFxncGDEQIBqT9fs3Xw-5">
                    <mxGeometry width="50" height="50" relative="1" as="geometry">
                        <mxPoint x="340" y="250" as="sourcePoint"/>
                        <mxPoint x="320" y="620" as="targetPoint"/>
                        <Array as="points">
                            <mxPoint x="710" y="390"/>
                            <mxPoint x="680" y="490"/>
                            <mxPoint x="510" y="710"/>
                        </Array>
                    </mxGeometry>
                </mxCell>
                <mxCell id="JEFxncGDEQIBqT9fs3Xw-33" value="" style="curved=1;endArrow=classic;html=1;strokeColor=#000000;strokeWidth=2;entryX=0;entryY=0;entryDx=0;entryDy=0;exitX=1;exitY=1;exitDx=0;exitDy=0;" parent="1" target="JEFxncGDEQIBqT9fs3Xw-4" edge="1" source="JEFxncGDEQIBqT9fs3Xw-2">
                    <mxGeometry width="50" height="50" relative="1" as="geometry">
                        <mxPoint x="360" y="240" as="sourcePoint"/>
                        <mxPoint x="680" y="580" as="targetPoint"/>
                        <Array as="points">
                            <mxPoint x="450" y="340"/>
                            <mxPoint x="570" y="510"/>
                        </Array>
                    </mxGeometry>
                </mxCell>
                <mxCell id="JEFxncGDEQIBqT9fs3Xw-34" value="" style="curved=1;endArrow=classic;html=1;strokeWidth=2;exitX=0.291;exitY=0.045;exitDx=0;exitDy=0;exitPerimeter=0;entryX=1;entryY=0.5;entryDx=0;entryDy=0;" parent="1" source="JEFxncGDEQIBqT9fs3Xw-4" edge="1" target="JEFxncGDEQIBqT9fs3Xw-2">
                    <mxGeometry width="50" height="50" relative="1" as="geometry">
                        <mxPoint x="670" y="570" as="sourcePoint"/>
                        <mxPoint x="380" y="220" as="targetPoint"/>
                        <Array as="points">
                            <mxPoint x="760" y="280"/>
                        </Array>
                    </mxGeometry>
                </mxCell>
                <mxCell id="ZxOsnHt_C15PmaDr5NMT-2" value="" style="endArrow=classic;html=1;exitX=0;exitY=0;exitDx=0;exitDy=0;entryX=0.625;entryY=0.004;entryDx=0;entryDy=0;entryPerimeter=0;" parent="1" source="JEFxncGDEQIBqT9fs3Xw-2" target="JEFxncGDEQIBqT9fs3Xw-2" edge="1">
                    <mxGeometry width="50" height="50" relative="1" as="geometry">
                        <mxPoint x="264" y="110" as="sourcePoint"/>
                        <mxPoint x="344" y="50" as="targetPoint"/>
                        <Array as="points">
                            <mxPoint x="354" y="20"/>
                        </Array>
                    </mxGeometry>
                </mxCell>
                <mxCell id="11eCTQWaDXBdQ_oKk8_j-1" value="&lt;span id=&quot;docs-internal-guid-bbf0f4e8-7fff-1e35-a5ee-ff3e7a154e85&quot;&gt;&lt;span style=&quot;font-size: 11pt ; font-family: &amp;#34;arial&amp;#34; ; background-color: transparent ; vertical-align: baseline&quot;&gt;1,1,1,1,0,0,0,1,0&lt;/span&gt;&lt;/span&gt;" style="text;html=1;align=center;verticalAlign=middle;whiteSpace=wrap;rounded=0;shadow=0;strokeColor=#000000;glass=0;fillColor=#ffffff;" vertex="1" parent="1">
                    <mxGeometry x="344" y="585" width="140" height="20" as="geometry"/>
                </mxCell>
                <mxCell id="11eCTQWaDXBdQ_oKk8_j-2" value="&lt;span id=&quot;docs-internal-guid-6589a4b1-7fff-5ea1-2ef8-7b5d9af1116f&quot;&gt;&lt;span style=&quot;font-size: 11pt ; font-family: &amp;#34;arial&amp;#34; ; background-color: transparent ; vertical-align: baseline&quot;&gt;1,1,1,1,0,0,0,0,1&lt;/span&gt;&lt;/span&gt;" style="text;html=1;align=center;verticalAlign=middle;whiteSpace=wrap;rounded=0;strokeColor=#000000;fillColor=#ffffff;" vertex="1" parent="1">
                    <mxGeometry x="344" y="610" width="140" height="20" as="geometry"/>
                </mxCell>
                <mxCell id="11eCTQWaDXBdQ_oKk8_j-5" value="&lt;span id=&quot;docs-internal-guid-22f6198f-7fff-e776-b713-9b277268731d&quot;&gt;&lt;span style=&quot;font-size: 11pt ; font-family: &amp;#34;arial&amp;#34; ; background-color: transparent ; vertical-align: baseline&quot;&gt;111010010 &lt;/span&gt;&lt;/span&gt;" style="text;html=1;align=center;verticalAlign=middle;whiteSpace=wrap;rounded=0;shadow=0;glass=0;strokeColor=#000000;fillColor=#ffffff;" vertex="1" parent="1">
                    <mxGeometry x="570" y="270" width="90" height="20" as="geometry"/>
                </mxCell>
                <mxCell id="11eCTQWaDXBdQ_oKk8_j-6" value="&lt;span id=&quot;docs-internal-guid-ace200eb-7fff-2d70-2511-e228b79c8bc5&quot;&gt;&lt;span style=&quot;font-size: 11pt ; font-family: &amp;#34;arial&amp;#34; ; background-color: transparent ; vertical-align: baseline&quot;&gt;111010001&lt;/span&gt;&lt;/span&gt;" style="text;html=1;align=center;verticalAlign=middle;whiteSpace=wrap;rounded=0;shadow=0;glass=0;strokeColor=#000000;fillColor=#ffffff;" vertex="1" parent="1">
                    <mxGeometry x="580" y="300" width="90" height="20" as="geometry"/>
                </mxCell>
                <mxCell id="11eCTQWaDXBdQ_oKk8_j-10" value="&lt;span id=&quot;docs-internal-guid-dba571e7-7fff-0a41-ba9d-065aade47dcb&quot;&gt;&lt;span style=&quot;font-size: 11pt ; font-family: &amp;#34;arial&amp;#34; ; background-color: transparent ; vertical-align: baseline&quot;&gt;111010001&lt;/span&gt;&lt;/span&gt;" style="text;html=1;align=center;verticalAlign=middle;whiteSpace=wrap;rounded=0;shadow=0;glass=0;strokeColor=#000000;fillColor=#ffffff;" vertex="1" parent="1">
                    <mxGeometry x="480" y="420" width="90" height="20" as="geometry"/>
                </mxCell>
                <mxCell id="11eCTQWaDXBdQ_oKk8_j-14" value="&lt;span id=&quot;docs-internal-guid-af920bf1-7fff-59b1-4576-196e4c3b9e97&quot;&gt;&lt;span style=&quot;font-size: 11pt ; font-family: &amp;#34;arial&amp;#34; ; background-color: transparent ; vertical-align: baseline&quot;&gt;111001001&lt;/span&gt;&lt;/span&gt;" style="text;html=1;align=center;verticalAlign=middle;whiteSpace=wrap;rounded=0;shadow=0;glass=0;strokeColor=#000000;fillColor=#ffffff;" vertex="1" parent="1">
                    <mxGeometry x="750" y="400" width="93" height="20" as="geometry"/>
                </mxCell>
                <mxCell id="11eCTQWaDXBdQ_oKk8_j-16" value="&lt;span id=&quot;docs-internal-guid-c035a042-7fff-0c49-afb8-e89a290ca3a1&quot;&gt;&lt;span style=&quot;font-size: 11pt ; font-family: &amp;#34;arial&amp;#34; ; background-color: transparent ; vertical-align: baseline&quot;&gt;111001100 &lt;/span&gt;&lt;/span&gt;" style="text;html=1;align=center;verticalAlign=middle;whiteSpace=wrap;rounded=0;shadow=0;glass=0;strokeColor=#000000;fillColor=#ffffff;" vertex="1" parent="1">
                    <mxGeometry x="620" y="490" width="70" height="20" as="geometry"/>
                </mxCell>
                <mxCell id="11eCTQWaDXBdQ_oKk8_j-20" value="&lt;span id=&quot;docs-internal-guid-0a450c5b-7fff-b23b-1960-abfe635e3b5a&quot;&gt;&lt;span style=&quot;font-size: 11pt ; font-family: &amp;#34;arial&amp;#34; ; background-color: transparent ; vertical-align: baseline&quot;&gt;111001010&lt;/span&gt;&lt;/span&gt;" style="text;html=1;align=center;verticalAlign=middle;whiteSpace=wrap;rounded=0;shadow=0;glass=0;strokeColor=#000000;fillColor=#ffffff;" vertex="1" parent="1">
                    <mxGeometry x="620" y="520" width="70" height="20" as="geometry"/>
                </mxCell>
                <mxCell id="11eCTQWaDXBdQ_oKk8_j-21" value="&lt;span id=&quot;docs-internal-guid-e81d2fcb-7fff-33a9-42db-fe3db5209c5e&quot;&gt;&lt;span style=&quot;font-size: 11pt ; font-family: &amp;#34;arial&amp;#34; ; background-color: transparent ; vertical-align: baseline&quot;&gt;1,1,1,0,1,0,1,0,0&lt;/span&gt;&lt;/span&gt;" style="text;html=1;align=center;verticalAlign=middle;whiteSpace=wrap;rounded=0;shadow=0;glass=0;strokeColor=#000000;fillColor=#ffffff;" vertex="1" parent="1">
                    <mxGeometry x="210" y="450" width="120" height="20" as="geometry"/>
                </mxCell>
                <mxCell id="11eCTQWaDXBdQ_oKk8_j-23" value="&lt;span id=&quot;docs-internal-guid-e2418df5-7fff-e7c6-6563-67e01c6ffb01&quot;&gt;&lt;span style=&quot;font-size: 11pt ; font-family: &amp;#34;arial&amp;#34; ; background-color: transparent ; vertical-align: baseline&quot;&gt;1,1,1,1,0,0,1,0,0&lt;/span&gt;&lt;/span&gt;" style="text;html=1;align=center;verticalAlign=middle;whiteSpace=wrap;rounded=0;shadow=0;glass=0;strokeColor=#000000;fillColor=#ffffff;" vertex="1" parent="1">
                    <mxGeometry x="-20" y="500" width="120" height="20" as="geometry"/>
                </mxCell>
            </root>
        </mxGraphModel>
    </diagram>
</mxfile>